<svg xmlns="http://www.w3.org/2000/svg" class="cinematic-scene__camera" viewBox="0 0 1200 800" preserveAspectRatio="xMidYMid slice"><defs><linearGradient id="cinematic-v-0-sky" x1="0" y1="0" x2="0" y2="1"><stop offset="0" stop-color="#e8e3f3"></stop><stop offset="1" stop-color="#d5b9ed" stop-opacity=".72"></stop></linearGradient><linearGradient id="cinematic-v-0-haze" x1="0" y1="0" x2="1" y2="0"><stop stop-color="#d5b9ed" stop-opacity="0"></stop><stop offset=".5" stop-color="#d5b9ed" stop-opacity=".56"></stop><stop offset="1" stop-color="#d5b9ed" stop-opacity="0"></stop></linearGradient><radialGradient id="cinematic-v-0-sun"><stop stop-color="#d5b9ed" stop-opacity=".82"></stop><stop offset="1" stop-color="#d5b9ed" stop-opacity="0"></stop></radialGradient></defs><rect width="1200" height="800" fill="url(#cinematic-v-0-sky)"></rect><circle class="scene-sun" cx="915" cy="185" r="150" fill="url(#cinematic-v-0-sun)"></circle><path class="scene-haze" d="M0 455Q300 380 600 448T1200 430V655H0Z" fill="url(#cinematic-v-0-haze)"></path><g class="world-castle"><circle cx="930" cy="190" r="85" fill="#d5b9ed" opacity=".75"></circle><path d="M260 710V475L345 365 430 475V710M430 710V425L515 325 600 425V710M600 710V475L685 365 770 475V710M770 710V425L855 325 940 425V710" fill="#9c78c4" opacity=".72"></path><path d="M240 710H960M345 365V290M515 325V240M685 365V290M855 325V240" stroke="#363356" stroke-width="16"></path><g fill="#363356" opacity=".62"><circle cx="200" cy="215" r="8"></circle><circle cx="470" cy="170" r="10"></circle><circle cx="730" cy="230" r="7"></circle><circle cx="1080" cy="350" r="9"></circle></g></g><g class="scene-foreground" fill="none" stroke="#363356" stroke-width="5" opacity=".42"><path d="M35 0Q180 150 150 320M1165 0Q1020 130 1050 310"></path><path d="M150 125Q80 70 54 90Q90 155 150 125ZM1050 142Q1120 80 1150 106Q1112 174 1050 142Z"></path></g><rect x="100" y="55" width="1000" height="150" rx="4" fill="#e8e3f3" opacity=".94"/><text x="600" y="110" text-anchor="middle" fill="#363356" font-size="18" font-family="sans-serif" letter-spacing="5">RADINA · KIDS &amp; BIRTHDAY</text><text x="600" y="162" text-anchor="middle" fill="#363356" font-size="40" font-family="serif">Istana di Bawah Bulan</text></svg>