<svg xmlns="http://www.w3.org/2000/svg" class="cinematic-scene__camera" viewBox="0 0 1200 800" preserveAspectRatio="xMidYMid slice"><defs><linearGradient id="cinematic-v-0-sky" x1="0" y1="0" x2="0" y2="1"><stop offset="0" stop-color="#d8e7ca"></stop><stop offset="1" stop-color="#8cbd72" stop-opacity=".72"></stop></linearGradient><linearGradient id="cinematic-v-0-haze" x1="0" y1="0" x2="1" y2="0"><stop stop-color="#8cbd72" stop-opacity="0"></stop><stop offset=".5" stop-color="#8cbd72" stop-opacity=".56"></stop><stop offset="1" stop-color="#8cbd72" stop-opacity="0"></stop></linearGradient><radialGradient id="cinematic-v-0-sun"><stop stop-color="#8cbd72" stop-opacity=".82"></stop><stop offset="1" stop-color="#8cbd72" stop-opacity="0"></stop></radialGradient></defs><rect width="1200" height="800" fill="url(#cinematic-v-0-sky)"></rect><circle class="scene-sun" cx="915" cy="185" r="150" fill="url(#cinematic-v-0-sun)"></circle><path class="scene-haze" d="M0 455Q300 380 600 448T1200 430V655H0Z" fill="url(#cinematic-v-0-haze)"></path><g class="world-jungle"><path d="M0 190Q210 50 420 210T820 190T1200 175V800H0Z" fill="#28473b" opacity=".28"></path><path d="M0 620Q260 480 520 640T1040 600T1200 610V800H0Z" fill="#d99a54" opacity=".5"></path><path d="M200 0Q280 220 150 410M990 0Q900 220 1040 440" fill="none" stroke="#28473b" stroke-width="18" opacity=".48"></path><path d="M0 770Q240 680 480 770T960 760T1200 740" fill="none" stroke="#8cbd72" stroke-width="14"></path><g fill="#8cbd72" opacity=".8"><circle cx="350" cy="420" r="7"></circle><circle cx="840" cy="370" r="9"></circle><circle cx="710" cy="510" r="6"></circle></g></g><g class="scene-foreground" fill="none" stroke="#28473b" stroke-width="5" opacity=".42"><path d="M35 0Q180 150 150 320M1165 0Q1020 130 1050 310"></path><path d="M150 125Q80 70 54 90Q90 155 150 125ZM1050 142Q1120 80 1150 106Q1112 174 1050 142Z"></path></g><rect x="100" y="55" width="1000" height="150" rx="4" fill="#d8e7ca" opacity=".94"/><text x="600" y="110" text-anchor="middle" fill="#28473b" font-size="18" font-family="sans-serif" letter-spacing="5">RADINA · KIDS &amp; BIRTHDAY</text><text x="600" y="162" text-anchor="middle" fill="#28473b" font-size="40" font-family="serif">Ekspedisi Hutan</text></svg>