<svg xmlns="http://www.w3.org/2000/svg" class="cinematic-scene__camera" viewBox="0 0 1200 800" preserveAspectRatio="xMidYMid slice"><defs><linearGradient id="cinematic-v-0-sky" x1="0" y1="0" x2="0" y2="1"><stop offset="0" stop-color="#dce9e8"></stop><stop offset="1" stop-color="#89bec1" stop-opacity=".72"></stop></linearGradient><linearGradient id="cinematic-v-0-haze" x1="0" y1="0" x2="1" y2="0"><stop stop-color="#89bec1" stop-opacity="0"></stop><stop offset=".5" stop-color="#89bec1" stop-opacity=".56"></stop><stop offset="1" stop-color="#89bec1" stop-opacity="0"></stop></linearGradient><radialGradient id="cinematic-v-0-sun"><stop stop-color="#89bec1" stop-opacity=".82"></stop><stop offset="1" stop-color="#89bec1" stop-opacity="0"></stop></radialGradient></defs><rect width="1200" height="800" fill="url(#cinematic-v-0-sky)"></rect><circle class="scene-sun" cx="915" cy="185" r="150" fill="url(#cinematic-v-0-sun)"></circle><path class="scene-haze" d="M0 455Q300 380 600 448T1200 430V655H0Z" fill="url(#cinematic-v-0-haze)"></path><g class="world-ocean"><path d="M0 520Q200 460 400 520T800 520T1200 500V800H0Z" fill="#173f4a" opacity=".28"></path><path d="M0 602Q200 540 400 602T800 602T1200 580M0 690Q200 630 400 690T800 690T1200 670" fill="none" stroke="#89bec1" stroke-width="14" opacity=".76"></path><path d="M360 540H820L735 628H435Z" fill="#b27d54" opacity=".8"></path><path d="M590 290V530M600 310 790 485H600Z" fill="#89bec1" opacity=".8"></path><path d="M0 755Q300 690 600 760T1200 740V800H0Z" fill="#173f4a" opacity=".35"></path></g><g class="scene-foreground" fill="none" stroke="#173f4a" stroke-width="5" opacity=".42"><path d="M35 0Q180 150 150 320M1165 0Q1020 130 1050 310"></path><path d="M150 125Q80 70 54 90Q90 155 150 125ZM1050 142Q1120 80 1150 106Q1112 174 1050 142Z"></path></g><rect x="100" y="55" width="1000" height="150" rx="4" fill="#dce9e8" opacity=".94"/><text x="600" y="110" text-anchor="middle" fill="#173f4a" font-size="18" font-family="sans-serif" letter-spacing="5">RADINA · REGIONAL</text><text x="600" y="162" text-anchor="middle" fill="#173f4a" font-size="40" font-family="serif">Pelayaran Senja Bugis</text></svg>