<svg xmlns="http://www.w3.org/2000/svg" width="1200" height="760" viewBox="0 0 1200 760" fill="none">
  <defs>
    <linearGradient id="bg" x1="0" y1="0" x2="1200" y2="760" gradientUnits="userSpaceOnUse">
      <stop stop-color="#F8FAFC"/>
      <stop offset="1" stop-color="#EAF4FF"/>
    </linearGradient>
    <filter id="soft" x="-20%" y="-20%" width="140%" height="160%">
      <feDropShadow dx="0" dy="12" stdDeviation="10" flood-color="#1E293B" flood-opacity="0.16"/>
    </filter>
  </defs>
  <rect width="1200" height="760" rx="34" fill="url(#bg)"/>
  <rect x="56" y="52" width="1088" height="656" rx="26" fill="white" filter="url(#soft)"/>
  <rect x="56" y="52" width="1088" height="78" rx="26" fill="#0F172A"/>
  <text x="100" y="99" font-size="26" font-family="Segoe UI, Arial, sans-serif" font-weight="700" fill="#F8FAFC">Dashboard Lisensi - radina.net</text>

  <rect x="94" y="164" width="312" height="140" rx="18" fill="#E0F2FE"/>
  <rect x="120" y="200" width="64" height="64" rx="14" fill="#0284C7"/>
  <text x="214" y="214" font-size="22" font-family="Segoe UI, Arial, sans-serif" font-weight="700" fill="#0F172A">Lisensi Aktif</text>
  <text x="214" y="254" font-size="38" font-family="Segoe UI, Arial, sans-serif" font-weight="800" fill="#0369A1">1,245</text>

  <rect x="442" y="164" width="312" height="140" rx="18" fill="#DCFCE7"/>
  <rect x="468" y="200" width="64" height="64" rx="14" fill="#16A34A"/>
  <text x="562" y="214" font-size="22" font-family="Segoe UI, Arial, sans-serif" font-weight="700" fill="#0F172A">Device Terhubung</text>
  <text x="562" y="254" font-size="38" font-family="Segoe UI, Arial, sans-serif" font-weight="800" fill="#15803D">3,892</text>

  <rect x="790" y="164" width="312" height="140" rx="18" fill="#FEF3C7"/>
  <rect x="816" y="200" width="64" height="64" rx="14" fill="#D97706"/>
  <text x="910" y="214" font-size="22" font-family="Segoe UI, Arial, sans-serif" font-weight="700" fill="#0F172A">Expired Bulan Ini</text>
  <text x="910" y="254" font-size="38" font-family="Segoe UI, Arial, sans-serif" font-weight="800" fill="#B45309">57</text>

  <rect x="94" y="336" width="1008" height="334" rx="20" fill="#F8FAFC"/>
  <text x="128" y="384" font-size="24" font-family="Segoe UI, Arial, sans-serif" font-weight="700" fill="#0F172A">Distribusi Status Lisensi</text>

  <rect x="128" y="418" width="700" height="20" rx="10" fill="#E2E8F0"/>
  <rect x="128" y="418" width="510" height="20" rx="10" fill="#0EA5E9"/>
  <text x="846" y="434" font-size="18" font-family="Segoe UI, Arial, sans-serif" font-weight="600" fill="#334155">Aktif 73%</text>

  <rect x="128" y="468" width="700" height="20" rx="10" fill="#E2E8F0"/>
  <rect x="128" y="468" width="122" height="20" rx="10" fill="#EAB308"/>
  <text x="846" y="484" font-size="18" font-family="Segoe UI, Arial, sans-serif" font-weight="600" fill="#334155">Pending 17%</text>

  <rect x="128" y="518" width="700" height="20" rx="10" fill="#E2E8F0"/>
  <rect x="128" y="518" width="68" height="20" rx="10" fill="#EF4444"/>
  <text x="846" y="534" font-size="18" font-family="Segoe UI, Arial, sans-serif" font-weight="600" fill="#334155">Revoked 10%</text>

  <rect x="882" y="418" width="186" height="214" rx="18" fill="#DBEAFE"/>
  <text x="975" y="462" text-anchor="middle" font-size="20" font-family="Segoe UI, Arial, sans-serif" font-weight="700" fill="#1E3A8A">API Health</text>
  <circle cx="975" cy="530" r="46" fill="#2563EB"/>
  <text x="975" y="539" text-anchor="middle" font-size="22" font-family="Segoe UI, Arial, sans-serif" font-weight="800" fill="white">99.9%</text>
  <text x="975" y="590" text-anchor="middle" font-size="16" font-family="Segoe UI, Arial, sans-serif" font-weight="600" fill="#334155">Stabil</text>
</svg>
