<svg xmlns="http://www.w3.org/2000/svg" viewBox="0 0 240 240" fill="none"><path d="M-20 80Q35 35 105 80T265 70" stroke="white" stroke-width="1.0" opacity=".65"/><path d="M-20 95Q35 50 105 95T265 85" stroke="white" stroke-width="1.2" opacity=".65"/><path d="M-20 110Q35 65 105 110T265 100" stroke="white" stroke-width="1.4" opacity=".65"/><path d="M-20 125Q35 80 105 125T265 115" stroke="white" stroke-width="1.6" opacity=".65"/><path d="M-20 140Q35 95 105 140T265 130" stroke="white" stroke-width="1.8" opacity=".65"/><path d="M-20 155Q35 110 105 155T265 145" stroke="white" stroke-width="2.0" opacity=".65"/><path d="M-20 170Q35 125 105 170T265 160" stroke="white" stroke-width="2.2" opacity=".65"/><path d="M-20 185Q35 140 105 185T265 175" stroke="white" stroke-width="2.4000000000000004" opacity=".65"/></svg>
