<svg xmlns="http://www.w3.org/2000/svg" viewBox="0 0 240 240" fill="none" stroke="white" stroke-width="1.8"><path d="M120 42C182-13 235 49 210 113C217 164 160 207 119 192C78 207 22 168 32 115C3 49 61-13 120 42Z" fill="white" opacity=".16"/><path d="M119 237V43M119 87L68 41M119 118L40 84M119 150L39 137M119 178L76 181M120 88L177 43M120 119L207 85M120 152L200 139M121 178L160 182"/><ellipse cx="89" cy="88" rx="6" ry="15" transform="rotate(-35 89 88)"/><ellipse cx="151" cy="113" rx="6" ry="17" transform="rotate(45 151 113)"/></svg>
