<svg xmlns="http://www.w3.org/2000/svg" viewBox="0 0 240 240" fill="none"><circle cx="205.00" cy="120.00" r="6" fill="white" opacity=".7"/><circle cx="202.87" cy="142.25" r="4" fill="white" opacity=".7"/><circle cx="196.58" cy="163.39" r="4" fill="white" opacity=".7"/><circle cx="186.46" cy="182.35" r="6" fill="white" opacity=".7"/><circle cx="173.00" cy="198.18" r="4" fill="white" opacity=".7"/><circle cx="156.88" cy="210.10" r="4" fill="white" opacity=".7"/><circle cx="138.91" cy="217.49" r="6" fill="white" opacity=".7"/><circle cx="120.00" cy="220.00" r="4" fill="white" opacity=".7"/><circle cx="101.09" cy="217.49" r="4" fill="white" opacity=".7"/><circle cx="83.12" cy="210.10" r="6" fill="white" opacity=".7"/><circle cx="67.00" cy="198.18" r="4" fill="white" opacity=".7"/><circle cx="53.54" cy="182.35" r="4" fill="white" opacity=".7"/><circle cx="43.42" cy="163.39" r="6" fill="white" opacity=".7"/><circle cx="37.13" cy="142.25" r="4" fill="white" opacity=".7"/><circle cx="35.00" cy="120.00" r="4" fill="white" opacity=".7"/><circle cx="37.13" cy="97.75" r="6" fill="white" opacity=".7"/><circle cx="43.42" cy="76.61" r="4" fill="white" opacity=".7"/><circle cx="53.54" cy="57.65" r="4" fill="white" opacity=".7"/><circle cx="67.00" cy="41.82" r="6" fill="white" opacity=".7"/><circle cx="83.12" cy="29.90" r="4" fill="white" opacity=".7"/><circle cx="101.09" cy="22.51" r="4" fill="white" opacity=".7"/><circle cx="120.00" cy="20.00" r="6" fill="white" opacity=".7"/><circle cx="138.91" cy="22.51" r="4" fill="white" opacity=".7"/><circle cx="156.88" cy="29.90" r="4" fill="white" opacity=".7"/><circle cx="173.00" cy="41.82" r="6" fill="white" opacity=".7"/><circle cx="186.46" cy="57.65" r="4" fill="white" opacity=".7"/><circle cx="196.58" cy="76.61" r="4" fill="white" opacity=".7"/><circle cx="202.87" cy="97.75" r="6" fill="white" opacity=".7"/><ellipse cx="120" cy="120" rx="75" ry="90" stroke="white" stroke-width=".6"/></svg>
