<svg xmlns="http://www.w3.org/2000/svg" viewBox="0 0 1200 800"><defs><linearGradient id="sky" x2="0" y2="1"><stop stop-color="#dce5de"/><stop offset="1" stop-color="#c1c8a5"/></linearGradient></defs><rect width="1200" height="800" fill="url(#sky)"/><circle cx="890" cy="310" r="70" fill="#c1c8a5" opacity=".5"/><path d="M0 700 170 485 360 650 620 480 900 650 1090 505 1200 650V800H0Z" fill="#2d4851" opacity=".08"/><path d="M300 656 485 590 570 390 660 590 900 656Z" fill="#ab794f"/><path d="M385 656H815V740H385Z" fill="#c1c8a5"/><path d="M400 736V793M485 736V793M715 736V793M800 736V793" stroke="#2d4851" stroke-width="12"/><path d="M580 674H635V740H580ZM445 683H500V715H445ZM704 683H755V715H704Z" fill="#2d4851"/><path d="M0 778Q100 757 210 778T440 778T680 778T900 778T1200 778" stroke="#c1c8a5" fill="none" stroke-width="7"/></svg>