<svg xmlns="http://www.w3.org/2000/svg" viewBox="0 0 1200 800"><defs><linearGradient id="sky" x2="0" y2="1"><stop stop-color="#f1dfc2"/><stop offset="1" stop-color="#d9b560"/></linearGradient></defs><rect width="1200" height="800" fill="url(#sky)"/><circle cx="890" cy="310" r="70" fill="#d9b560" opacity=".5"/><path d="M0 700 170 485 360 650 620 480 900 650 1090 505 1200 650V800H0Z" fill="#542b31" opacity=".08"/><path d="M230 650 390 545H810L970 650Z" fill="#a55038"/><path d="M410 545 490 475H710L790 545Z" fill="#542b31"/><path d="M300 650H900V740H300Z" fill="#d9b560"/><path d="M340 655V790M450 655V790M760 655V790M865 655V790" stroke="#542b31" stroke-width="13"/><path d="M545 740H655L715 800H490Z" fill="#a55038"/><path d="M355 675H440V712H355ZM475 675H560V712H475ZM640 675H725V712H640ZM760 675H845V712H760Z" fill="#542b31"/></svg>