<svg xmlns="http://www.w3.org/2000/svg" viewBox="0 0 240 240" fill="none"><path d="M20 235Q90 173 123 112M61 192Q24 157 25 129Q71 139 61 192ZM97 151Q167 138 175 96Q118 95 97 151Z" fill="white" opacity=".42"/><ellipse cx="120" cy="78" rx="19.0" ry="44.0" transform="rotate(0.0 120 113)" fill="white" opacity="0.43"/><ellipse cx="120" cy="78" rx="19.0" ry="44.0" transform="rotate(32.7 120 113)" fill="white" opacity="0.43"/><ellipse cx="120" cy="78" rx="19.0" ry="44.0" transform="rotate(65.5 120 113)" fill="white" opacity="0.43"/><ellipse cx="120" cy="78" rx="19.0" ry="44.0" transform="rotate(98.2 120 113)" fill="white" opacity="0.43"/><ellipse cx="120" cy="78" rx="19.0" ry="44.0" transform="rotate(130.9 120 113)" fill="white" opacity="0.43"/><ellipse cx="120" cy="78" rx="19.0" ry="44.0" transform="rotate(163.6 120 113)" fill="white" opacity="0.43"/><ellipse cx="120" cy="78" rx="19.0" ry="44.0" transform="rotate(196.4 120 113)" fill="white" opacity="0.43"/><ellipse cx="120" cy="78" rx="19.0" ry="44.0" transform="rotate(229.1 120 113)" fill="white" opacity="0.43"/><ellipse cx="120" cy="78" rx="19.0" ry="44.0" transform="rotate(261.8 120 113)" fill="white" opacity="0.43"/><ellipse cx="120" cy="78" rx="19.0" ry="44.0" transform="rotate(294.5 120 113)" fill="white" opacity="0.43"/><ellipse cx="120" cy="78" rx="19.0" ry="44.0" transform="rotate(327.3 120 113)" fill="white" opacity="0.43"/><ellipse cx="120" cy="78" rx="12.9" ry="29.9" transform="rotate(17.0 120 113)" fill="white" opacity="0.64"/><ellipse cx="120" cy="78" rx="12.9" ry="29.9" transform="rotate(49.7 120 113)" fill="white" opacity="0.64"/><ellipse cx="120" cy="78" rx="12.9" ry="29.9" transform="rotate(82.5 120 113)" fill="white" opacity="0.64"/><ellipse cx="120" cy="78" rx="12.9" ry="29.9" transform="rotate(115.2 120 113)" fill="white" opacity="0.64"/><ellipse cx="120" cy="78" rx="12.9" ry="29.9" transform="rotate(147.9 120 113)" fill="white" opacity="0.64"/><ellipse cx="120" cy="78" rx="12.9" ry="29.9" transform="rotate(180.6 120 113)" fill="white" opacity="0.64"/><ellipse cx="120" cy="78" rx="12.9" ry="29.9" transform="rotate(213.4 120 113)" fill="white" opacity="0.64"/><ellipse cx="120" cy="78" rx="12.9" ry="29.9" transform="rotate(246.1 120 113)" fill="white" opacity="0.64"/><ellipse cx="120" cy="78" rx="12.9" ry="29.9" transform="rotate(278.8 120 113)" fill="white" opacity="0.64"/><ellipse cx="120" cy="78" rx="12.9" ry="29.9" transform="rotate(311.5 120 113)" fill="white" opacity="0.64"/><ellipse cx="120" cy="78" rx="12.9" ry="29.9" transform="rotate(344.3 120 113)" fill="white" opacity="0.64"/><ellipse cx="120" cy="78" rx="6.1" ry="14.1" transform="rotate(34.0 120 113)" fill="white" opacity="0.9"/><ellipse cx="120" cy="78" rx="6.1" ry="14.1" transform="rotate(66.7 120 113)" fill="white" opacity="0.9"/><ellipse cx="120" cy="78" rx="6.1" ry="14.1" transform="rotate(99.5 120 113)" fill="white" opacity="0.9"/><ellipse cx="120" cy="78" rx="6.1" ry="14.1" transform="rotate(132.2 120 113)" fill="white" opacity="0.9"/><ellipse cx="120" cy="78" rx="6.1" ry="14.1" transform="rotate(164.9 120 113)" fill="white" opacity="0.9"/><ellipse cx="120" cy="78" rx="6.1" ry="14.1" transform="rotate(197.6 120 113)" fill="white" opacity="0.9"/><ellipse cx="120" cy="78" rx="6.1" ry="14.1" transform="rotate(230.4 120 113)" fill="white" opacity="0.9"/><ellipse cx="120" cy="78" rx="6.1" ry="14.1" transform="rotate(263.1 120 113)" fill="white" opacity="0.9"/><ellipse cx="120" cy="78" rx="6.1" ry="14.1" transform="rotate(295.8 120 113)" fill="white" opacity="0.9"/><ellipse cx="120" cy="78" rx="6.1" ry="14.1" transform="rotate(328.5 120 113)" fill="white" opacity="0.9"/><ellipse cx="120" cy="78" rx="6.1" ry="14.1" transform="rotate(361.3 120 113)" fill="white" opacity="0.9"/><circle cx="120" cy="113" r="10" fill="white"/></svg>
